<svg width="25" height="29" viewBox="0 0 25 29" fill="none" xmlns="http://www.w3.org/2000/svg">
<g id="&#240;&#159;&#166;&#134; icon &#34;pause outline&#34;">
<path id="Vector" d="M1 26.6833V2.15C1 1.51487 1.51487 1 2.15 1H7.51666C8.15179 1 8.66666 1.51487 8.66666 2.15V26.6833C8.66666 27.3185 8.15179 27.8333 7.51666 27.8333H2.15C1.51487 27.8333 1 27.3185 1 26.6833Z" stroke="black" stroke-width="2"/>
<path id="Vector_2" d="M16.3334 26.6833V2.15C16.3334 1.51487 16.8483 1 17.4834 1H22.8501C23.4853 1 24.0001 1.51487 24.0001 2.15V26.6833C24.0001 27.3185 23.4853 27.8333 22.8501 27.8333H17.4834C16.8483 27.8333 16.3334 27.3185 16.3334 26.6833Z" stroke="black" stroke-width="2"/>
</g>
</svg>
